<svg width="17" height="16" viewBox="0 0 17 16" fill="none" xmlns="http://www.w3.org/2000/svg">
<path d="M5.55291 10.7807C4.11918 9.34417 3.01659 7.61178 2.32224 5.70468C1.94024 4.66202 2.29024 3.51668 3.07558 2.73135L3.56158 2.24602C3.69223 2.11509 3.84743 2.01123 4.01828 1.94036C4.18913 1.86949 4.37228 1.83301 4.55724 1.83301C4.74221 1.83301 4.92536 1.86949 5.09621 1.94036C5.26706 2.01123 5.42225 2.11509 5.55291 2.24602L6.69091 3.38402C6.82183 3.51467 6.9257 3.66987 6.99657 3.84072C7.06744 4.01157 7.10392 4.19472 7.10392 4.37968C7.10392 4.56465 7.06744 4.7478 6.99657 4.91865C6.9257 5.08949 6.82183 5.24469 6.69091 5.37535L6.41091 5.65535C6.29883 5.7674 6.20993 5.90043 6.14927 6.04685C6.08861 6.19327 6.05739 6.3502 6.05739 6.50868C6.05739 6.66717 6.08861 6.8241 6.14927 6.97051C6.20993 7.11693 6.29883 7.24996 6.41091 7.36202L8.97091 9.92268C9.08296 10.0348 9.216 10.1237 9.36241 10.1843C9.50883 10.245 9.66576 10.2762 9.82424 10.2762C9.98273 10.2762 10.1397 10.245 10.2861 10.1843C10.4325 10.1237 10.5655 10.0348 10.6776 9.92268L10.9582 9.64268C11.0889 9.51176 11.2441 9.40789 11.4149 9.33702C11.5858 9.26615 11.7689 9.22967 11.9539 9.22967C12.1389 9.22967 12.322 9.26615 12.4929 9.33702C12.6637 9.40789 12.8189 9.51176 12.9496 9.64268L14.0876 10.7807C14.2185 10.9113 14.3224 11.0665 14.3932 11.2374C14.4641 11.4082 14.5006 11.5914 14.5006 11.7763C14.5006 11.9613 14.4641 12.1445 14.3932 12.3153C14.3224 12.4862 14.2185 12.6414 14.0876 12.772L13.6022 13.2573C12.8169 14.0433 11.6716 14.3933 10.6289 14.0113C8.72181 13.317 6.98942 12.2144 5.55291 10.7807Z" stroke="white" stroke-width="1.5" stroke-linejoin="round"/>
</svg>
